<?xml version="1.0" encoding="utf-8"?>
<!-- Generator: Adobe Illustrator 16.0.0, SVG Export Plug-In . SVG Version: 6.00 Build 0)  -->
<!DOCTYPE svg PUBLIC "-//W3C//DTD SVG 1.1//EN" "http://www.w3.org/Graphics/SVG/1.1/DTD/svg11.dtd">
<svg version="1.1" id="Layer_1" xmlns="http://www.w3.org/2000/svg" xmlns:xlink="http://www.w3.org/1999/xlink" x="0px" y="0px"
	 width="998px" height="753.644px" viewBox="0 0 998 753.644" enable-background="new 0 0 998 753.644" xml:space="preserve">
<rect x="-934.954" y="-106.058" fill="#728486" width="527.089" height="120.887"/>
<rect x="-934.954" y="34.499" fill="#FFFFFF" width="527.089" height="120.887"/>
<rect x="-934.954" y="176.976" fill="#80D56F" width="527.089" height="120.887"/>
<rect x="-934.954" y="318.421" fill="#BFC9D3" width="527.089" height="120.887"/>
<rect x="-934.954" y="459.414" fill="#23C6B3" width="527.089" height="120.887"/>
<rect x="-934.954" y="603.406" fill="#77F76F" width="527.089" height="120.887"/>


<g>
	<g>
		<path fill-rule="evenodd" clip-rule="evenodd" fill="#23C6B3" d="M518.55,182.424c7.593-0.137,13.456-6.022,13.438-13.485
			c-0.019-7.302-6.146-13.426-13.499-13.485c-7.816-0.063-14.267,6.401-13.896,13.928
			C504.955,176.759,511.161,182.555,518.55,182.424z"/>
		<path fill-rule="evenodd" clip-rule="evenodd" fill="#23C6B3" d="M493.64,190.962c3.536-0.065,6.268-2.805,6.259-6.281
			c-0.008-3.401-2.863-6.253-6.288-6.279c-3.64-0.031-6.644,2.979-6.473,6.486C487.309,188.322,490.198,191.023,493.64,190.962z"/>
		<path fill-rule="evenodd" clip-rule="evenodd" fill="#23C6B3" d="M618.838,383.942c-32.301-56.174-64.983-112.125-96.768-168.587
			c-6.017-10.687-12.479-15.504-24.879-14.3c-6.727,0.653-10.483,2.525-13.778,8.343c-18.188,32.106-36.783,63.986-55.209,95.96
			c-15.474,26.848-31.06,53.635-46.3,80.614c-8.574,15.186-1.497,33.508,14.412,35.919c10.224,0.828,20.43,0.485,30.921,0.485
			c-2.144-4.524-4.474-8.317-5.583-12.257c-3.218-11.424,6.129-28.052,15.73-28.104c42.272-0.233,84.544-0.41,126.814-0.186
			c3.162,0.021,7.21,2.656,9.296,5.299c8.482,10.744,10.384,22.276,0.133,35.491c9.183,0,16.201,0.034,23.219-0.009
			C620.222,422.474,630.579,404.361,618.838,383.942z M506.981,212.271c5.27,0.04,9.663,4.43,9.674,9.665
			c0.015,5.349-4.188,9.564-9.63,9.665c-5.296,0.095-9.743-4.061-10.005-9.347C496.756,216.857,501.38,212.225,506.981,212.271z
			 M492.787,232.819c0.043,0,0.085,0.006,0.129,0.007c0.001-0.002,0.002-0.005,0.005-0.007c0.001,0.002,0.004,0.005,0.005,0.007
			c3.362,0.101,6.141,2.918,6.147,6.272c0.01,3.478-2.723,6.216-6.257,6.28c-3.442,0.063-6.333-2.639-6.501-6.074
			C486.142,235.799,489.147,232.789,492.787,232.819z M456.249,340.352c5.608-9.571,10.714-18.43,15.964-27.207
			c9.845-16.457,8.77-33.479,2.51-50.649c-2.061-5.647,0.357-8.641,5.313-8.801c13.8-0.448,27.632-0.494,41.427-0.033
			c6.229,0.208,7.211,4.255,4.905,10.165c-5.782,14.805-6.265,30.057,0.619,44.523c5.018,10.54,11.705,20.288,18.6,32.003
			C515.076,340.352,486.527,340.352,456.249,340.352z"/>
	</g>
	<path fill="#BFC9D3" d="M111.074,709.87c0,3.542-0.874,7.376-2.62,11.5c-1.746,4.125-4.491,8.174-8.236,12.145
		c-3.745,3.974-8.527,7.2-14.347,9.68c-5.82,2.479-12.601,3.72-20.343,3.72c-5.873,0-11.21-0.558-16.018-1.67
		c-4.808-1.113-9.174-2.848-13.095-5.201c-3.923-2.352-7.528-5.451-10.818-9.298c-2.935-3.491-5.44-7.402-7.515-11.729
		c-2.075-4.327-3.633-8.943-4.667-13.854c-1.04-4.908-1.557-10.121-1.557-15.637c0-8.958,1.303-16.979,3.911-24.064
		c2.605-7.084,6.337-13.145,11.196-18.181c4.859-5.034,10.551-8.868,17.081-11.5c6.527-2.631,13.485-3.947,20.875-3.947
		c9.006,0,17.027,1.797,24.063,5.389c7.033,3.594,12.423,8.036,16.168,13.323c3.745,5.288,5.618,10.285,5.618,14.992
		c0,2.581-0.911,4.857-2.734,6.832c-1.821,1.974-4.023,2.96-6.604,2.96c-2.884,0-5.048-0.683-6.49-2.05
		c-1.442-1.367-3.05-3.719-4.821-7.06c-2.936-5.516-6.389-9.641-10.362-12.373c-3.973-2.732-8.868-4.1-14.688-4.1
		c-9.261,0-16.638,3.518-22.127,10.552c-5.492,7.035-8.236,17.03-8.236,29.984c0,8.653,1.214,15.854,3.643,21.597
		c2.43,5.744,5.87,10.033,10.325,12.867c4.453,2.835,9.665,4.251,15.637,4.251c6.478,0,11.955-1.606,16.435-4.82
		c4.479-3.214,7.856-7.934,10.134-14.156c0.961-2.936,2.15-5.327,3.567-7.176c1.417-1.846,3.694-2.77,6.832-2.77
		c2.682,0,4.985,0.938,6.909,2.808C110.112,704.759,111.074,707.087,111.074,709.87z"/>
	<path fill="#BFC9D3" d="M202.546,732.415l-5.314-13.968h-45.242l-5.314,14.271c-2.074,5.567-3.846,9.325-5.313,11.272
		c-1.468,1.947-3.871,2.923-7.212,2.923c-2.835,0-5.339-1.038-7.515-3.113c-2.175-2.074-3.263-4.427-3.263-7.06
		c0-1.518,0.253-3.087,0.759-4.705c0.505-1.619,1.341-3.873,2.504-6.757l28.467-72.267c0.81-2.074,1.786-4.566,2.924-7.477
		c1.139-2.91,2.354-5.327,3.643-7.249c1.292-1.923,2.986-3.479,5.086-4.67c2.099-1.188,4.693-1.783,7.78-1.783
		c3.138,0,5.757,0.595,7.858,1.783c2.099,1.19,3.794,2.721,5.084,4.593c1.292,1.873,2.378,3.885,3.265,6.034
		c0.884,2.152,2.011,5.023,3.378,8.616l29.074,71.813c2.277,5.464,3.416,9.438,3.416,11.917c0,2.582-1.077,4.947-3.227,7.098
		c-2.152,2.15-4.744,3.227-7.78,3.227c-1.773,0-3.291-0.316-4.555-0.949c-1.266-0.633-2.329-1.491-3.188-2.581
		c-0.861-1.088-1.784-2.758-2.77-5.01C204.102,736.123,203.255,734.136,202.546,732.415z M157.91,701.52h33.249l-16.775-45.926
		L157.91,701.52z"/>
	<path fill="#BFC9D3" d="M334.099,709.87c0,3.542-0.874,7.376-2.62,11.5c-1.746,4.125-4.491,8.174-8.236,12.145
		c-3.745,3.974-8.527,7.2-14.347,9.68c-5.82,2.479-12.601,3.72-20.343,3.72c-5.873,0-11.21-0.558-16.017-1.67
		c-4.809-1.113-9.174-2.848-13.095-5.201c-3.923-2.352-7.529-5.451-10.818-9.298c-2.935-3.491-5.44-7.402-7.515-11.729
		c-2.074-4.327-3.633-8.943-4.667-13.854c-1.04-4.908-1.557-10.121-1.557-15.637c0-8.958,1.303-16.979,3.911-24.064
		c2.605-7.084,6.337-13.145,11.196-18.181c4.859-5.034,10.551-8.868,17.081-11.5c6.527-2.631,13.485-3.947,20.875-3.947
		c9.007,0,17.028,1.797,24.063,5.389c7.033,3.594,12.423,8.036,16.168,13.323c3.745,5.288,5.618,10.285,5.618,14.992
		c0,2.581-0.911,4.857-2.733,6.832c-1.821,1.974-4.023,2.96-6.604,2.96c-2.885,0-5.048-0.683-6.49-2.05s-3.05-3.719-4.82-7.06
		c-2.937-5.516-6.389-9.641-10.362-12.373c-3.974-2.732-8.868-4.1-14.689-4.1c-9.261,0-16.637,3.518-22.127,10.552
		c-5.492,7.035-8.236,17.03-8.236,29.984c0,8.653,1.214,15.854,3.643,21.597c2.43,5.744,5.87,10.033,10.325,12.867
		c4.453,2.835,9.665,4.251,15.637,4.251c6.478,0,11.955-1.606,16.435-4.82c4.479-3.214,7.855-7.934,10.134-14.156
		c0.96-2.936,2.149-5.327,3.567-7.176c1.417-1.846,3.695-2.77,6.832-2.77c2.682,0,4.985,0.938,6.909,2.808
		C333.137,704.759,334.099,707.087,334.099,709.87z"/>
	<path fill="#BFC9D3" d="M426.633,652.33h-24.594v80.844c0,4.657-1.037,8.111-3.113,10.361c-2.076,2.252-4.758,3.379-8.047,3.379
		c-3.339,0-6.061-1.139-8.16-3.416c-2.102-2.276-3.151-5.718-3.151-10.324V652.33h-24.594c-3.846,0-6.706-0.849-8.578-2.544
		c-1.873-1.695-2.809-3.934-2.809-6.719c0-2.884,0.974-5.161,2.923-6.832c1.947-1.669,4.77-2.504,8.464-2.504h71.659
		c3.897,0,6.794,0.861,8.693,2.581c1.896,1.721,2.846,3.974,2.846,6.755c0,2.785-0.962,5.023-2.884,6.719
		C433.362,651.481,430.479,652.33,426.633,652.33z"/>
	<path fill="#BFC9D3" d="M498.445,631.834c11.537,0,21.444,2.341,29.718,7.022c8.274,4.681,14.537,11.336,18.787,19.963
		c4.252,8.629,6.378,18.764,6.378,30.403c0,8.604-1.165,16.422-3.492,23.456c-2.328,7.034-5.82,13.132-10.476,18.294
		c-4.656,5.161-10.374,9.109-17.156,11.842c-6.782,2.733-14.55,4.1-23.305,4.1c-8.704,0-16.498-1.404-23.38-4.214
		c-6.883-2.809-12.627-6.768-17.231-11.88c-4.606-5.11-8.084-11.26-10.438-18.446c-2.352-7.185-3.53-14.954-3.53-23.305
		c0-8.551,1.228-16.396,3.682-23.531c2.454-7.136,6.008-13.208,10.666-18.219c4.655-5.01,10.323-8.844,17.004-11.501
		C482.351,633.161,489.942,631.834,498.445,631.834z M530.479,689.069c0-8.146-1.316-15.206-3.947-21.179
		c-2.632-5.971-6.389-10.487-11.272-13.551c-4.885-3.06-10.489-4.592-16.813-4.592c-4.505,0-8.667,0.849-12.487,2.544
		c-3.823,1.695-7.111,4.163-9.869,7.4c-2.76,3.239-4.936,7.377-6.528,12.412c-1.595,5.036-2.392,10.691-2.392,16.965
		c0,6.327,0.796,12.045,2.392,17.156c1.593,5.113,3.845,9.351,6.755,12.716c2.909,3.365,6.25,5.882,10.021,7.553
		c3.77,1.669,7.906,2.505,12.412,2.505c5.769,0,11.069-1.441,15.902-4.326c4.832-2.886,8.68-7.337,11.539-13.361
		C529.049,705.291,530.479,697.876,530.479,689.069z"/>
	<path fill="#BFC9D3" d="M657.174,711.615c0,6.73-1.734,12.78-5.2,18.143c-3.467,5.365-8.54,9.564-15.221,12.602
		c-6.68,3.037-14.601,4.555-23.759,4.555c-10.982,0-20.041-2.075-27.177-6.225c-5.062-2.986-9.173-6.971-12.335-11.957
		c-3.164-4.983-4.744-9.83-4.744-14.535c0-2.734,0.948-5.074,2.846-7.022c1.898-1.947,4.313-2.923,7.25-2.923
		c2.378,0,4.39,0.76,6.034,2.278c1.645,1.518,3.049,3.77,4.214,6.756c1.415,3.542,2.948,6.503,4.593,8.88
		c1.644,2.381,3.958,4.342,6.945,5.884c2.985,1.545,6.907,2.315,11.767,2.315c6.68,0,12.107-1.556,16.282-4.669
		c4.175-3.111,6.263-6.995,6.263-11.651c0-3.693-1.127-6.692-3.378-8.996c-2.252-2.302-5.161-4.062-8.729-5.275
		c-3.569-1.215-8.339-2.505-14.309-3.872c-7.998-1.871-14.689-4.062-20.079-6.565c-5.39-2.505-9.667-5.921-12.828-10.247
		c-3.165-4.328-4.745-9.704-4.745-16.133c0-6.122,1.671-11.563,5.011-16.319s8.172-8.414,14.499-10.97
		c6.324-2.555,13.764-3.833,22.317-3.833c6.832,0,12.74,0.849,17.725,2.544c4.983,1.695,9.12,3.946,12.411,6.755
		c3.289,2.808,5.693,5.757,7.212,8.844c1.518,3.087,2.277,6.099,2.277,9.033c0,2.683-0.948,5.099-2.848,7.25
		c-1.896,2.15-4.264,3.226-7.098,3.226c-2.58,0-4.541-0.646-5.882-1.936c-1.342-1.29-2.797-3.403-4.365-6.34
		c-2.025-4.199-4.454-7.477-7.288-9.828c-2.835-2.354-7.389-3.531-13.664-3.531c-5.819,0-10.513,1.278-14.081,3.834
		c-3.567,2.556-5.352,5.63-5.352,9.222c0,2.229,0.607,4.151,1.822,5.771c1.214,1.62,2.885,3.012,5.01,4.175
		c2.126,1.164,4.276,2.075,6.453,2.732c2.176,0.659,5.769,1.62,10.778,2.886c6.275,1.467,11.956,3.087,17.042,4.857
		c5.086,1.772,9.413,3.923,12.981,6.452c3.567,2.532,6.351,5.731,8.35,9.603C656.174,701.254,657.174,705.998,657.174,711.615z"/>
	<path fill="#23C6B3" d="M698.392,645.498v80.996h45.699c3.645,0,6.439,0.886,8.388,2.656c1.947,1.772,2.923,3.999,2.923,6.68
		c0,2.734-0.962,4.948-2.884,6.644c-1.924,1.695-4.733,2.542-8.427,2.542h-54.428c-4.909,0-8.439-1.088-10.59-3.264
		c-2.151-2.176-3.226-5.693-3.226-10.551v-85.703c0-4.556,1.024-7.972,3.074-10.249c2.049-2.276,4.744-3.415,8.084-3.415
		c3.39,0,6.136,1.126,8.236,3.378C697.343,637.465,698.392,640.893,698.392,645.498z"/>
	<path fill="#23C6B3" d="M942.601,745.016h-34.007c-4.909,0-8.415-1.1-10.514-3.302c-2.101-2.201-3.15-5.706-3.15-10.513v-83.655
		c0-4.906,1.074-8.437,3.227-10.589c2.15-2.149,5.63-3.226,10.438-3.226h36.059c5.313,0,9.917,0.329,13.815,0.986
		c3.896,0.658,7.388,1.924,10.475,3.796c2.631,1.569,4.96,3.557,6.984,5.958c2.023,2.405,3.568,5.062,4.63,7.972
		c1.063,2.91,1.595,5.985,1.595,9.223c0,11.134-5.568,19.281-16.701,24.443c14.625,4.656,21.938,13.715,21.938,27.177
		c0,6.224-1.594,11.83-4.782,16.813c-3.188,4.984-7.49,8.667-12.904,11.045c-3.391,1.418-7.288,2.417-11.691,2.998
		C953.607,744.726,948.471,745.016,942.601,745.016z M917.476,650.659v28.771h20.648c5.616,0,9.956-0.531,13.018-1.595
		c3.062-1.063,5.401-3.087,7.022-6.072c1.263-2.126,1.896-4.503,1.896-7.136c0-5.617-1.999-9.349-5.996-11.197
		c-3.998-1.847-10.097-2.771-18.294-2.771H917.476z M940.932,695.598h-23.456v32.49h24.215c15.231,0,22.85-5.489,22.85-16.473
		c0-5.617-1.974-9.69-5.922-12.222C954.672,696.863,948.774,695.598,940.932,695.598z"/>
	<path fill-rule="evenodd" clip-rule="evenodd" fill="#23C6B3" d="M883.086,724.947c-16.428-28.569-33.049-57.024-49.215-85.739
		c-3.058-5.436-6.345-7.886-12.651-7.273c-3.42,0.333-5.331,1.285-7.007,4.244c-9.25,16.329-18.707,32.542-28.079,48.803
		c-7.869,13.653-15.795,27.277-23.546,40.998c-4.361,7.724-0.761,17.041,7.33,18.267c5.199,0.422,10.389,0.247,15.725,0.247
		c-1.089-2.3-2.274-4.23-2.839-6.232c-1.636-5.81,3.118-14.267,8-14.293c21.499-0.12,42.996-0.209,64.494-0.095
		c1.607,0.01,3.667,1.351,4.728,2.694c4.313,5.464,5.281,11.33,0.066,18.05c4.671,0,8.24,0.017,11.81-0.004
		C883.79,744.543,889.058,735.331,883.086,724.947z M826.198,637.64c2.681,0.02,4.915,2.252,4.921,4.914
		c0.008,2.721-2.13,4.865-4.898,4.916c-2.692,0.048-4.955-2.065-5.088-4.754C820.998,639.971,823.35,637.616,826.198,637.64z
		 M818.98,648.09c0.022,0,0.043,0.002,0.065,0.004c0.001-0.002,0.001-0.003,0.002-0.004c0.002,0.001,0.002,0.002,0.003,0.004
		c1.71,0.052,3.122,1.483,3.126,3.189c0.005,1.768-1.384,3.162-3.182,3.194c-1.751,0.031-3.221-1.343-3.307-3.09
		C815.601,649.606,817.129,648.073,818.98,648.09z M800.398,702.777c2.851-4.867,5.448-9.373,8.118-13.837
		c5.007-8.369,4.46-17.027,1.277-25.758c-1.049-2.872,0.181-4.395,2.702-4.477c7.018-0.229,14.052-0.252,21.068-0.018
		c3.168,0.106,3.667,2.165,2.494,5.169c-2.94,7.53-3.186,15.287,0.314,22.645c2.553,5.36,5.953,10.316,9.46,16.275
		C830.315,702.777,815.797,702.777,800.398,702.777z"/>
	<path fill="#BFC9D3" d="M240.329,424.292c0,28.646,23.225,51.857,51.852,51.857c14.689,0,27.883-6.108,37.325-15.887
		l122.335,68.025c-1.763,5.189-2.732,10.734-2.732,16.522c0,28.648,23.19,51.878,51.852,51.878
		c28.629,0,51.859-23.229,51.859-51.878c0-5.788-0.969-11.333-2.732-16.522l122.301-68.025c9.441,9.778,22.669,15.887,37.358,15.887
		c28.628,0,51.853-23.212,51.853-51.857c0-25.423-18.321-46.538-42.452-50.977V234.189c24.131-4.44,42.452-25.555,42.452-50.957
		c0-28.646-23.225-51.877-51.853-51.877c-15.813,0-29.939,7.081-39.459,18.208L549.784,80.002c1.954-5.433,3.035-11.24,3.035-17.31
		c0-28.645-23.23-51.877-51.859-51.877c-28.661,0-51.852,23.232-51.852,51.877c0,6.07,1.082,11.877,2.992,17.31l-120.501,69.562
		c-9.512-11.127-23.604-18.208-39.418-18.208c-28.627,0-51.852,23.23-51.852,51.877c0,25.402,18.279,46.517,42.411,50.957v139.126
		C258.608,377.754,240.329,398.869,240.329,424.292z M510.409,516.129c-21.063,0-38.146,17.068-38.146,38.125
		c0,8.114,2.55,15.626,6.892,21.809c-9.849-6.895-16.334-18.304-16.334-31.252c0-21.057,17.086-38.105,38.14-38.105
		c12.934,0,24.356,6.446,31.255,16.301C526.032,518.678,518.503,516.129,510.409,516.129z M740.958,402.484
		c-6.188-4.328-13.676-6.894-21.812-6.894c-21.055,0-38.104,17.066-38.104,38.123c0,8.113,2.55,15.626,6.857,21.809
		c-9.856-6.896-16.3-18.304-16.3-31.23c0-21.059,17.086-38.125,38.146-38.125C722.673,386.167,734.062,392.63,740.958,402.484z
		 M709.746,145.106c12.927,0,24.315,6.444,31.212,16.299c-6.188-4.328-13.676-6.876-21.812-6.876
		c-21.055,0-38.104,17.068-38.104,38.126c0,8.112,2.55,15.625,6.857,21.807c-9.856-6.895-16.3-18.304-16.3-31.23
		C671.6,162.175,688.686,145.106,709.746,145.106z M500.96,24.566c12.934,0,24.356,6.463,31.255,16.318
		c-6.183-4.328-13.712-6.876-21.806-6.876c-21.063,0-38.146,17.05-38.146,38.107c0,8.13,2.55,15.625,6.892,21.826
		c-9.849-6.894-16.334-18.323-16.334-31.25C462.82,41.634,479.906,24.566,500.96,24.566z M344.04,183.232
		c0-6.091-1.089-11.897-2.999-17.331l120.501-69.563c9.519,11.13,23.612,18.211,39.417,18.211c15.778,0,29.906-7.082,39.418-18.211
		l120.509,69.563c-1.953,5.434-3.035,11.24-3.035,17.331c0,25.402,18.322,46.517,42.453,50.957v139.126
		c-24.131,4.438-42.453,25.554-42.453,50.977c0,7.155,1.462,13.994,4.083,20.195l-120.987,67.296
		c-9.519-11.504-23.906-18.827-39.987-18.827c-16.108,0-30.496,7.323-39.98,18.827l-121.021-67.296
		c2.655-6.201,4.081-13.04,4.081-20.195c0-25.423-18.286-46.538-42.418-50.977V234.189
		C325.754,229.749,344.04,208.634,344.04,183.232z M263.483,192.655c0,8.112,2.584,15.625,6.891,21.807
		c-9.856-6.895-16.298-18.304-16.298-31.23c0-21.058,17.05-38.126,38.104-38.126c12.926,0,24.356,6.444,31.255,16.299
		c-6.182-4.328-13.713-6.876-21.813-6.876C280.569,154.529,263.483,171.597,263.483,192.655z M292.181,386.167
		c12.926,0,24.356,6.463,31.255,16.317c-6.182-4.328-13.713-6.894-21.813-6.894c-21.053,0-38.139,17.066-38.139,38.123
		c0,8.113,2.584,15.626,6.891,21.809c-9.856-6.896-16.298-18.304-16.298-31.23C254.077,403.233,271.126,386.167,292.181,386.167z"/>
	<path fill-rule="evenodd" clip-rule="evenodd" fill="#23C6B3" d="M837.373,598.492c4.722,0.035,8.658,3.968,8.669,8.658
		c0.013,4.792-3.753,8.571-8.63,8.66c-4.744,0.085-8.73-3.64-8.965-8.376C828.21,602.6,832.354,598.45,837.373,598.492z"/>
	<path fill-rule="evenodd" clip-rule="evenodd" fill="#23C6B3" d="M820.005,614.928c0.033,0,0.065,0.003,0.099,0.003
		c0.002,0,0.002-0.003,0.002-0.003c0.003,0,0.003,0.003,0.003,0.003c2.544,0.078,4.644,2.208,4.648,4.74
		c0.007,2.629-2.059,4.701-4.729,4.749c-2.603,0.047-4.786-1.995-4.914-4.592C814.983,617.18,817.255,614.902,820.005,614.928z"/>
</g>
</svg>
